<?xml version="1.0" encoding="utf-8"?>
<!-- Generator: Adobe Illustrator 21.0.0, SVG Export Plug-In . SVG Version: 6.00 Build 0)  -->
<svg version="1.1" id="Layer_1" xmlns="http://www.w3.org/2000/svg" xmlns:xlink="http://www.w3.org/1999/xlink" x="0px" y="0px"
	 viewBox="0 0 170 163" style="enable-background:new 0 0 170 163;" xml:space="preserve">
<style type="text/css">
	.st0{fill:#FFFFFF;}
</style>
<g>
	
		<ellipse transform="matrix(0.7071 -0.7071 0.7071 0.7071 -27.3608 72.3067)" class="st0" cx="73.6" cy="69.2" rx="40.2" ry="40.2"/>
	<path class="st0" d="M118.3,104.1c17.5-22.3,16-54.6-4.6-75.1C91.6,6.8,55.6,6.8,33.4,29s-22.2,58.2,0,80.4
		c20.2,20.2,51.8,21.9,74,5.4l38.6,41.4l13.6-13.6L118.3,104.1z M102,97.6c-15.7,15.7-41.1,15.7-56.8,0s-15.7-41.1,0-56.8
		s41.1-15.7,56.8,0S117.7,81.9,102,97.6z"/>
</g>
</svg>
