<?xml version="1.0" encoding="utf-8"?>
<!-- Generator: Adobe Illustrator 21.0.0, SVG Export Plug-In . SVG Version: 6.00 Build 0)  -->
<svg version="1.1" xmlns="http://www.w3.org/2000/svg" xmlns:xlink="http://www.w3.org/1999/xlink" x="0px" y="0px"
	 viewBox="0 0 234.7 225" style="enable-background:new 0 0 234.7 225;" xml:space="preserve">
<style type="text/css">
	.st0{fill:#D5D5E2;}
	.st1{fill:none;}
	.st2{fill:#1A1E5B;}
</style>
<g id="Layer_2">
	<rect x="0.2" y="0.2" class="st0" width="234.3" height="224.7"/>
</g>
<g id="Layer_1">
	<g>
		
			<ellipse transform="matrix(0.7071 -0.7071 0.7071 0.7071 -39.8115 104.2481)" class="st1" cx="105.9" cy="100.2" rx="40.2" ry="40.2"/>
		<path class="st2" d="M150.6,135.1c17.5-22.3,16-54.6-4.6-75.1c-22.1-22.2-58.1-22.2-80.3,0s-22.2,58.2,0,80.4
			c20.2,20.2,51.8,21.9,74,5.4l38.6,41.4l13.6-13.6L150.6,135.1z M134.3,128.6c-15.7,15.7-41.1,15.7-56.8,0
			c-15.7-15.7-15.7-41.1,0-56.8s41.1-15.7,56.8,0S150,112.9,134.3,128.6z"/>
	</g>
</g>
</svg>
